<svg xmlns="http://www.w3.org/2000/svg" width="338.071" height="109.143" viewBox="0 0 338.071 109.143">
  <g id="altpiano" transform="translate(-38 -598)">
    <g id="F1" transform="translate(38 598)" fill="none" stroke="#001724" stroke-width="2">
      <path d="M7.5,0H26.071a0,0,0,0,1,0,0V109.143a0,0,0,0,1,0,0H7.5a7.5,7.5,0,0,1-7.5-7.5V7.5A7.5,7.5,0,0,1,7.5,0Z" stroke="none"/>
      <path d="M7.5,1H24.071a1,1,0,0,1,1,1V107.143a1,1,0,0,1-1,1H7.5a6.5,6.5,0,0,1-6.5-6.5V7.5A6.5,6.5,0,0,1,7.5,1Z" fill="none"/>
    </g>
    <g id="G1" transform="translate(62 598)" fill="none" stroke="#001724" stroke-width="2">
      <rect width="26.071" height="109.143" stroke="none"/>
      <rect x="1" y="1" width="24.071" height="107.143" fill="none"/>
    </g>
    <g id="A1" transform="translate(86 598)" fill="none" stroke="#001724" stroke-width="2">
      <rect width="26.071" height="109.143" stroke="none"/>
      <rect x="1" y="1" width="24.071" height="107.143" fill="none"/>
    </g>
    <g id="B1" transform="translate(110 598)" fill="none" stroke="#001724" stroke-width="2">
      <rect width="26.071" height="109.143" stroke="none"/>
      <rect x="1" y="1" width="24.071" height="107.143" fill="none"/>
    </g>
    <g id="C2" transform="translate(134 598)" fill="none" stroke="#001724" stroke-width="2">
      <rect width="26.071" height="109.143" stroke="none"/>
      <rect x="1" y="1" width="24.071" height="107.143" fill="none"/>
    </g>
    <g id="D2" transform="translate(158 598)" fill="none" stroke="#001724" stroke-width="2">
      <rect width="26.071" height="109.143" stroke="none"/>
      <rect x="1" y="1" width="24.071" height="107.143" fill="none"/>
    </g>
    <g id="E2" transform="translate(182 598)" fill="none" stroke="#001724" stroke-width="2">
      <rect width="26.071" height="109.143" stroke="none"/>
      <rect x="1" y="1" width="24.071" height="107.143" fill="none"/>
    </g>
    <g id="F2" transform="translate(206 598)" fill="none" stroke="#001724" stroke-width="2">
      <rect width="26.071" height="109.143" stroke="none"/>
      <rect x="1" y="1" width="24.071" height="107.143" fill="none"/>
    </g>
    <g id="G2" transform="translate(230 598)" fill="none" stroke="#001724" stroke-width="2">
      <rect width="26.071" height="109.143" stroke="none"/>
      <rect x="1" y="1" width="24.071" height="107.143" fill="none"/>
    </g>
    <g id="A2" transform="translate(254 598)" fill="none" stroke="#001724" stroke-width="2">
      <rect width="26.071" height="109.143" stroke="none"/>
      <rect x="1" y="1" width="24.071" height="107.143" fill="none"/>
    </g>
    <g id="B2" transform="translate(278 598)" fill="none" stroke="#001724" stroke-width="2">
      <rect width="26.071" height="109.143" stroke="none"/>
      <rect x="1" y="1" width="24.071" height="107.143" fill="none"/>
    </g>
    <g id="C3" transform="translate(302 598)" fill="none" stroke="#001724" stroke-width="2">
      <rect width="26.071" height="109.143" stroke="none"/>
      <rect x="1" y="1" width="24.071" height="107.143" fill="none"/>
    </g>
    <g id="D3" transform="translate(326 598)" fill="none" stroke="#001724" stroke-width="2">
      <rect width="26.071" height="109.143" stroke="none"/>
      <rect x="1" y="1" width="24.071" height="107.143" fill="none"/>
    </g>
    <g id="E3" transform="translate(350 598)" fill="none" stroke="#001724" stroke-width="2">
      <path d="M0,0H18.571a7.5,7.5,0,0,1,7.5,7.5v94.143a7.5,7.5,0,0,1-7.5,7.5H0a0,0,0,0,1,0,0V0A0,0,0,0,1,0,0Z" stroke="none"/>
      <path d="M2,1H18.571a6.5,6.5,0,0,1,6.5,6.5v94.143a6.5,6.5,0,0,1-6.5,6.5H2a1,1,0,0,1-1-1V2A1,1,0,0,1,2,1Z" fill="none"/>
    </g>
    <g id="F-sharp1" transform="translate(55.5 598)" fill="#001724" stroke="#001724" stroke-width="2">
      <path d="M0,0H15.071a0,0,0,0,1,0,0V65.087a2.5,2.5,0,0,1-2.5,2.5H2.5a2.5,2.5,0,0,1-2.5-2.5V0A0,0,0,0,1,0,0Z" stroke="none"/>
      <path d="M2,1H13.071a1,1,0,0,1,1,1V65.087a1.5,1.5,0,0,1-1.5,1.5H2.5a1.5,1.5,0,0,1-1.5-1.5V2A1,1,0,0,1,2,1Z" fill="none"/>
    </g>
    <g id="G-sharp1" transform="translate(79.5 598)" fill="#001724" stroke="#001724" stroke-width="2">
      <path d="M0,0H15.071a0,0,0,0,1,0,0V65.087a2.5,2.5,0,0,1-2.5,2.5H2.5a2.5,2.5,0,0,1-2.5-2.5V0A0,0,0,0,1,0,0Z" stroke="none"/>
      <path d="M2,1H13.071a1,1,0,0,1,1,1V65.087a1.5,1.5,0,0,1-1.5,1.5H2.5a1.5,1.5,0,0,1-1.5-1.5V2A1,1,0,0,1,2,1Z" fill="none"/>
    </g>
    <g id="A-sharp1" transform="translate(103.5 598)" fill="#001724" stroke="#001724" stroke-width="2">
      <path d="M0,0H15.071a0,0,0,0,1,0,0V65.087a2.5,2.5,0,0,1-2.5,2.5H2.5a2.5,2.5,0,0,1-2.5-2.5V0A0,0,0,0,1,0,0Z" stroke="none"/>
      <path d="M2,1H13.071a1,1,0,0,1,1,1V65.087a1.5,1.5,0,0,1-1.5,1.5H2.5a1.5,1.5,0,0,1-1.5-1.5V2A1,1,0,0,1,2,1Z" fill="none"/>
    </g>
    <g id="C-sharp2" transform="translate(151.5 598)" fill="#001724" stroke="#001724" stroke-width="2">
      <path d="M0,0H15.071a0,0,0,0,1,0,0V65.087a2.5,2.5,0,0,1-2.5,2.5H2.5a2.5,2.5,0,0,1-2.5-2.5V0A0,0,0,0,1,0,0Z" stroke="none"/>
      <path d="M2,1H13.071a1,1,0,0,1,1,1V65.087a1.5,1.5,0,0,1-1.5,1.5H2.5a1.5,1.5,0,0,1-1.5-1.5V2A1,1,0,0,1,2,1Z" fill="none"/>
    </g>
    <g id="D-sharp2" transform="translate(175.5 598)" fill="#001724" stroke="#001724" stroke-width="2">
      <path d="M0,0H15.071a0,0,0,0,1,0,0V65.087a2.5,2.5,0,0,1-2.5,2.5H2.5a2.5,2.5,0,0,1-2.5-2.5V0A0,0,0,0,1,0,0Z" stroke="none"/>
      <path d="M2,1H13.071a1,1,0,0,1,1,1V65.087a1.5,1.5,0,0,1-1.5,1.5H2.5a1.5,1.5,0,0,1-1.5-1.5V2A1,1,0,0,1,2,1Z" fill="none"/>
    </g>
    <g id="F-sharp2" transform="translate(223.5 598)" fill="#001724" stroke="#001724" stroke-width="2">
      <path d="M0,0H15.071a0,0,0,0,1,0,0V65.087a2.5,2.5,0,0,1-2.5,2.5H2.5a2.5,2.5,0,0,1-2.5-2.5V0A0,0,0,0,1,0,0Z" stroke="none"/>
      <path d="M2,1H13.071a1,1,0,0,1,1,1V65.087a1.5,1.5,0,0,1-1.5,1.5H2.5a1.5,1.5,0,0,1-1.5-1.5V2A1,1,0,0,1,2,1Z" fill="none"/>
    </g>
    <g id="G-sharp2" transform="translate(247.5 598)" fill="#001724" stroke="#001724" stroke-width="2">
      <path d="M0,0H15.071a0,0,0,0,1,0,0V65.087a2.5,2.5,0,0,1-2.5,2.5H2.5a2.5,2.5,0,0,1-2.5-2.5V0A0,0,0,0,1,0,0Z" stroke="none"/>
      <path d="M2,1H13.071a1,1,0,0,1,1,1V65.087a1.5,1.5,0,0,1-1.5,1.5H2.5a1.5,1.5,0,0,1-1.5-1.5V2A1,1,0,0,1,2,1Z" fill="none"/>
    </g>
    <g id="A-sharp2" transform="translate(271.5 598)" fill="#001724" stroke="#001724" stroke-width="2">
      <path d="M0,0H15.071a0,0,0,0,1,0,0V65.087a2.5,2.5,0,0,1-2.5,2.5H2.5a2.5,2.5,0,0,1-2.5-2.5V0A0,0,0,0,1,0,0Z" stroke="none"/>
      <path d="M2,1H13.071a1,1,0,0,1,1,1V65.087a1.5,1.5,0,0,1-1.5,1.5H2.5a1.5,1.5,0,0,1-1.5-1.5V2A1,1,0,0,1,2,1Z" fill="none"/>
    </g>
    <g id="C-sharp3" transform="translate(319.5 598)" fill="#001724" stroke="#001724" stroke-width="2">
      <path d="M0,0H15.071a0,0,0,0,1,0,0V65.087a2.5,2.5,0,0,1-2.5,2.5H2.5a2.5,2.5,0,0,1-2.5-2.5V0A0,0,0,0,1,0,0Z" stroke="none"/>
      <path d="M2,1H13.071a1,1,0,0,1,1,1V65.087a1.5,1.5,0,0,1-1.5,1.5H2.5a1.5,1.5,0,0,1-1.5-1.5V2A1,1,0,0,1,2,1Z" fill="none"/>
    </g>
    <g id="D-sharp3" transform="translate(343.5 598)" fill="#001724" stroke="#001724" stroke-width="2">
      <path d="M0,0H15.071a0,0,0,0,1,0,0V65.087a2.5,2.5,0,0,1-2.5,2.5H2.5a2.5,2.5,0,0,1-2.5-2.5V0A0,0,0,0,1,0,0Z" stroke="none"/>
      <path d="M2,1H13.071a1,1,0,0,1,1,1V65.087a1.5,1.5,0,0,1-1.5,1.5H2.5a1.5,1.5,0,0,1-1.5-1.5V2A1,1,0,0,1,2,1Z" fill="none"/>
    </g>
    <g id="pianoBorder" transform="translate(38 598)" fill="none" stroke="#001724" stroke-width="2">
      <rect width="338" height="109" rx="7.5" stroke="none"/>
      <rect x="1" y="1" width="336" height="107" rx="6.5" fill="none"/>
    </g>
  </g>
</svg>
