<svg xmlns="http://www.w3.org/2000/svg" width="410.071" height="109.143" viewBox="0 0 410.071 109.143">
  <g id="_29piano" data-name="29piano" transform="translate(-38 -598)">
    <g id="C1" class="white-key" transform="translate(38 598)" fill="none" stroke="#001724" stroke-width="2">
      <path d="M7.5,0H26.071a0,0,0,0,1,0,0V109.143a0,0,0,0,1,0,0H7.5a7.5,7.5,0,0,1-7.5-7.5V7.5A7.5,7.5,0,0,1,7.5,0Z" stroke="none"/>
      <path d="M7.5,1H24.071a1,1,0,0,1,1,1V107.143a1,1,0,0,1-1,1H7.5a6.5,6.5,0,0,1-6.5-6.5V7.5A6.5,6.5,0,0,1,7.5,1Z" fill="none"/>
    </g>
    <g id="D1" class="white-key" transform="translate(62 598)" fill="none" stroke="#001724" stroke-width="2">
      <rect width="26.071" height="109.143" stroke="none"/>
      <rect x="1" y="1" width="24.071" height="107.143" fill="none"/>
    </g>
    <g id="E1" class="white-key" transform="translate(86 598)" fill="none" stroke="#001724" stroke-width="2">
      <rect width="26.071" height="109.143" stroke="none"/>
      <rect x="1" y="1" width="24.071" height="107.143" fill="none"/>
    </g>
    <g id="F1" class="white-key" transform="translate(110 598)" fill="none" stroke="#001724" stroke-width="2">
      <rect width="26.071" height="109.143" stroke="none"/>
      <rect x="1" y="1" width="24.071" height="107.143" fill="none"/>
    </g>
    <g id="G1" class="white-key" transform="translate(134 598)" fill="none" stroke="#001724" stroke-width="2">
      <rect width="26.071" height="109.143" stroke="none"/>
      <rect x="1" y="1" width="24.071" height="107.143" fill="none"/>
    </g>
    <g id="A1" class="white-key" transform="translate(158 598)" fill="none" stroke="#001724" stroke-width="2">
      <rect width="26.071" height="109.143" stroke="none"/>
      <rect x="1" y="1" width="24.071" height="107.143" fill="none"/>
    </g>
    <g id="B1" class="white-key" transform="translate(182 598)" fill="none" stroke="#001724" stroke-width="2">
      <rect width="26.071" height="109.143" stroke="none"/>
      <rect x="1" y="1" width="24.071" height="107.143" fill="none"/>
    </g>
    <g id="C2" class="white-key" transform="translate(206 598)" fill="none" stroke="#001724" stroke-width="2">
      <rect width="26.071" height="109.143" stroke="none"/>
      <rect x="1" y="1" width="24.071" height="107.143" fill="none"/>
    </g>
    <g id="D2" class="white-key" transform="translate(230 598)" fill="none" stroke="#001724" stroke-width="2">
      <rect width="26.071" height="109.143" stroke="none"/>
      <rect x="1" y="1" width="24.071" height="107.143" fill="none"/>
    </g>
    <g id="E2" class="white-key" transform="translate(254 598)" fill="none" stroke="#001724" stroke-width="2">
      <rect width="26.071" height="109.143" stroke="none"/>
      <rect x="1" y="1" width="24.071" height="107.143" fill="none"/>
    </g>
    <g id="F2" class="white-key" transform="translate(278 598)" fill="none" stroke="#001724" stroke-width="2">
      <rect width="26.071" height="109.143" stroke="none"/>
      <rect x="1" y="1" width="24.071" height="107.143" fill="none"/>
    </g>
    <g id="G2" class="white-key" transform="translate(302 598)" fill="none" stroke="#001724" stroke-width="2">
      <rect width="26.071" height="109.143" stroke="none"/>
      <rect x="1" y="1" width="24.071" height="107.143" fill="none"/>
    </g>
    <g id="A2" class="white-key" transform="translate(326 598)" fill="none" stroke="#001724" stroke-width="2">
      <rect width="26.071" height="109.143" stroke="none"/>
      <rect x="1" y="1" width="24.071" height="107.143" fill="none"/>
    </g>
    <g id="B2" class="white-key" transform="translate(350 598)" fill="none" stroke="#001724" stroke-width="2">
      <rect width="26.071" height="109.143" stroke="none"/>
      <rect x="1" y="1" width="24.071" height="107.143" fill="none"/>
    </g>
    <g id="C3" class="white-key" transform="translate(374 598)" fill="none" stroke="#001724" stroke-width="2">
      <rect width="26.071" height="109.143" stroke="none"/>
      <rect x="1" y="1" width="24.071" height="107.143" fill="none"/>
    </g>
    <g id="D3" class="white-key" transform="translate(398 598)" fill="none" stroke="#001724" stroke-width="2">
      <rect width="26.071" height="109.143" stroke="none"/>
      <rect x="1" y="1" width="24.071" height="107.143" fill="none"/>
    </g>
    <g id="E3" class="white-key" transform="translate(422 598)" fill="none" stroke="#001724" stroke-width="2">
      <path d="M0,0H18.571a7.5,7.5,0,0,1,7.5,7.5v94.143a7.5,7.5,0,0,1-7.5,7.5H0a0,0,0,0,1,0,0V0A0,0,0,0,1,0,0Z" stroke="none"/>
      <path d="M2,1H18.571a6.5,6.5,0,0,1,6.5,6.5v94.143a6.5,6.5,0,0,1-6.5,6.5H2a1,1,0,0,1-1-1V2A1,1,0,0,1,2,1Z" fill="none"/>
    </g>
    <g id="C-sharp1" class="black-key" transform="translate(55.5 598)" fill="#001724" stroke="#001724" stroke-width="2">
      <path d="M0,0H15.071a0,0,0,0,1,0,0V65.087a2.5,2.5,0,0,1-2.5,2.5H2.5a2.5,2.5,0,0,1-2.5-2.5V0A0,0,0,0,1,0,0Z" stroke="none"/>
      <path d="M2,1H13.071a1,1,0,0,1,1,1V65.087a1.5,1.5,0,0,1-1.5,1.5H2.5a1.5,1.5,0,0,1-1.5-1.5V2A1,1,0,0,1,2,1Z" fill="none"/>
    </g>
    <g id="D-sharp1" class="black-key" transform="translate(79.5 598)" fill="#001724" stroke="#001724" stroke-width="2">
      <path d="M0,0H15.071a0,0,0,0,1,0,0V65.087a2.5,2.5,0,0,1-2.5,2.5H2.5a2.5,2.5,0,0,1-2.5-2.5V0A0,0,0,0,1,0,0Z" stroke="none"/>
      <path d="M2,1H13.071a1,1,0,0,1,1,1V65.087a1.5,1.5,0,0,1-1.5,1.5H2.5a1.5,1.5,0,0,1-1.5-1.5V2A1,1,0,0,1,2,1Z" fill="none"/>
    </g>
    <g id="F-sharp1" class="black-key" transform="translate(127.5 598)" fill="#001724" stroke="#001724" stroke-width="2">
      <path d="M0,0H15.071a0,0,0,0,1,0,0V65.087a2.5,2.5,0,0,1-2.5,2.5H2.5a2.5,2.5,0,0,1-2.5-2.5V0A0,0,0,0,1,0,0Z" stroke="none"/>
      <path d="M2,1H13.071a1,1,0,0,1,1,1V65.087a1.5,1.5,0,0,1-1.5,1.5H2.5a1.5,1.5,0,0,1-1.5-1.5V2A1,1,0,0,1,2,1Z" fill="none"/>
    </g>
    <g id="G-sharp1" class="black-key" transform="translate(151.5 598)" fill="#001724" stroke="#001724" stroke-width="2">
      <path d="M0,0H15.071a0,0,0,0,1,0,0V65.087a2.5,2.5,0,0,1-2.5,2.5H2.5a2.5,2.5,0,0,1-2.5-2.5V0A0,0,0,0,1,0,0Z" stroke="none"/>
      <path d="M2,1H13.071a1,1,0,0,1,1,1V65.087a1.5,1.5,0,0,1-1.5,1.5H2.5a1.5,1.5,0,0,1-1.5-1.5V2A1,1,0,0,1,2,1Z" fill="none"/>
    </g>
    <g id="A-sharp1" class="black-key" transform="translate(175.5 598)" fill="#001724" stroke="#001724" stroke-width="2">
      <path d="M0,0H15.071a0,0,0,0,1,0,0V65.087a2.5,2.5,0,0,1-2.5,2.5H2.5a2.5,2.5,0,0,1-2.5-2.5V0A0,0,0,0,1,0,0Z" stroke="none"/>
      <path d="M2,1H13.071a1,1,0,0,1,1,1V65.087a1.5,1.5,0,0,1-1.5,1.5H2.5a1.5,1.5,0,0,1-1.5-1.5V2A1,1,0,0,1,2,1Z" fill="none"/>
    </g>
    <g id="C-sharp2" class="black-key" transform="translate(223.5 598)" fill="#001724" stroke="#001724" stroke-width="2">
      <path d="M0,0H15.071a0,0,0,0,1,0,0V65.087a2.5,2.5,0,0,1-2.5,2.5H2.5a2.5,2.5,0,0,1-2.5-2.5V0A0,0,0,0,1,0,0Z" stroke="none"/>
      <path d="M2,1H13.071a1,1,0,0,1,1,1V65.087a1.5,1.5,0,0,1-1.5,1.5H2.5a1.5,1.5,0,0,1-1.5-1.5V2A1,1,0,0,1,2,1Z" fill="none"/>
    </g>
    <g id="D-sharp2" class="black-key" transform="translate(247.5 598)" fill="#001724" stroke="#001724" stroke-width="2">
      <path d="M0,0H15.071a0,0,0,0,1,0,0V65.087a2.5,2.5,0,0,1-2.5,2.5H2.5a2.5,2.5,0,0,1-2.5-2.5V0A0,0,0,0,1,0,0Z" stroke="none"/>
      <path d="M2,1H13.071a1,1,0,0,1,1,1V65.087a1.5,1.5,0,0,1-1.5,1.5H2.5a1.5,1.5,0,0,1-1.5-1.5V2A1,1,0,0,1,2,1Z" fill="none"/>
    </g>
    <g id="F-sharp2" class="black-key" transform="translate(295.5 598)" fill="#001724" stroke="#001724" stroke-width="2">
      <path d="M0,0H15.071a0,0,0,0,1,0,0V65.087a2.5,2.5,0,0,1-2.5,2.5H2.5a2.5,2.5,0,0,1-2.5-2.5V0A0,0,0,0,1,0,0Z" stroke="none"/>
      <path d="M2,1H13.071a1,1,0,0,1,1,1V65.087a1.5,1.5,0,0,1-1.5,1.5H2.5a1.5,1.5,0,0,1-1.5-1.5V2A1,1,0,0,1,2,1Z" fill="none"/>
    </g>
    <g id="G-sharp2" class="black-key" transform="translate(319.5 598)" fill="#001724" stroke="#001724" stroke-width="2">
      <path d="M0,0H15.071a0,0,0,0,1,0,0V65.087a2.5,2.5,0,0,1-2.5,2.5H2.5a2.5,2.5,0,0,1-2.5-2.5V0A0,0,0,0,1,0,0Z" stroke="none"/>
      <path d="M2,1H13.071a1,1,0,0,1,1,1V65.087a1.5,1.5,0,0,1-1.5,1.5H2.5a1.5,1.5,0,0,1-1.5-1.5V2A1,1,0,0,1,2,1Z" fill="none"/>
    </g>
    <g id="A-sharp2" class="black-key" transform="translate(343.5 598)" fill="#001724" stroke="#001724" stroke-width="2">
      <path d="M0,0H15.071a0,0,0,0,1,0,0V65.087a2.5,2.5,0,0,1-2.5,2.5H2.5a2.5,2.5,0,0,1-2.5-2.5V0A0,0,0,0,1,0,0Z" stroke="none"/>
      <path d="M2,1H13.071a1,1,0,0,1,1,1V65.087a1.5,1.5,0,0,1-1.5,1.5H2.5a1.5,1.5,0,0,1-1.5-1.5V2A1,1,0,0,1,2,1Z" fill="none"/>
    </g>
    <g id="C-sharp3" class="black-key" transform="translate(391.5 598)" fill="#001724" stroke="#001724" stroke-width="2">
      <path d="M0,0H15.071a0,0,0,0,1,0,0V65.087a2.5,2.5,0,0,1-2.5,2.5H2.5a2.5,2.5,0,0,1-2.5-2.5V0A0,0,0,0,1,0,0Z" stroke="none"/>
      <path d="M2,1H13.071a1,1,0,0,1,1,1V65.087a1.5,1.5,0,0,1-1.5,1.5H2.5a1.5,1.5,0,0,1-1.5-1.5V2A1,1,0,0,1,2,1Z" fill="none"/>
    </g>
    <g id="D-sharp3" class="black-key" transform="translate(416.5 598)" fill="#001724" stroke="#001724" stroke-width="2">
      <path d="M0,0H15.071a0,0,0,0,1,0,0V65.087a2.5,2.5,0,0,1-2.5,2.5H2.5a2.5,2.5,0,0,1-2.5-2.5V0A0,0,0,0,1,0,0Z" stroke="none"/>
      <path d="M2,1H13.071a1,1,0,0,1,1,1V65.087a1.5,1.5,0,0,1-1.5,1.5H2.5a1.5,1.5,0,0,1-1.5-1.5V2A1,1,0,0,1,2,1Z" fill="none"/>
    </g>
    <g id="pianoBorder" transform="translate(38 598)" fill="none" stroke="#001724" stroke-width="2">
      <rect width="410" height="109" rx="7.5" stroke="none"/>
      <rect x="1" y="1" width="408" height="107" rx="6.5" fill="none"/>
    </g>
  </g>
</svg>
