<?xml version="1.0" encoding="UTF-8" standalone="no"?>
<!-- Created with Inkscape (http://www.inkscape.org/) -->

<svg
   xmlns:dc="http://purl.org/dc/elements/1.1/"
   xmlns:cc="http://creativecommons.org/ns#"
   xmlns:rdf="http://www.w3.org/1999/02/22-rdf-syntax-ns#"
   xmlns:svg="http://www.w3.org/2000/svg"
   xmlns="http://www.w3.org/2000/svg"
   xmlns:sodipodi="http://sodipodi.sourceforge.net/DTD/sodipodi-0.dtd"
   xmlns:inkscape="http://www.inkscape.org/namespaces/inkscape"
   width="96.123886mm"
   height="53.345264mm"
   viewBox="0 0 96.123886 53.345264"
   version="1.1"
   id="svg8"
   inkscape:version="0.92.5 (2060ec1f9f, 2020-04-08)"
   sodipodi:docname="logo.svg">
  <defs
     id="defs2" />
  <sodipodi:namedview
     id="base"
     pagecolor="#ffffff"
     bordercolor="#666666"
     borderopacity="1.0"
     inkscape:pageopacity="0.0"
     inkscape:pageshadow="2"
     inkscape:zoom="0.55593998"
     inkscape:cx="212.70116"
     inkscape:cy="-13.153661"
     inkscape:document-units="mm"
     inkscape:current-layer="layer1"
     showgrid="false"
     inkscape:window-width="1920"
     inkscape:window-height="1057"
     inkscape:window-x="-8"
     inkscape:window-y="-8"
     inkscape:window-maximized="1"
     fit-margin-top="0"
     fit-margin-left="0"
     fit-margin-right="0"
     fit-margin-bottom="0" />
  <metadata
     id="metadata5">
    <rdf:RDF>
      <cc:Work
         rdf:about="">
        <dc:format>image/svg+xml</dc:format>
        <dc:type
           rdf:resource="http://purl.org/dc/dcmitype/StillImage" />
        <dc:title></dc:title>
      </cc:Work>
    </rdf:RDF>
  </metadata>
  <g
     inkscape:label="Layer 1"
     inkscape:groupmode="layer"
     id="layer1"
     transform="translate(-37.166476,-43.446752)">
    <g
       aria-label="Chord
Chart"
       transform="matrix(0.98769173,0,0,1.0124616,2.5574682,-1.1709813)"
       style="font-style:normal;font-weight:normal;font-size:31.28167915px;line-height:0.89999998;font-family:sans-serif;letter-spacing:0.17462505px;word-spacing:0px;fill:#000000;fill-opacity:1;stroke:none;stroke-width:0.78204197"
       id="text817">
      <path
         d="m 45.801191,44.881892 q 4.223026,0 6.975814,2.220999 2.78407,2.220999 3.597393,6.006082 h -5.661984 q -0.625633,-1.532802 -1.939464,-2.408689 -1.282549,-0.875887 -3.065604,-0.875887 -2.346126,0 -3.785084,1.720492 -1.438957,1.720493 -1.438957,4.598407 0,2.877915 1.438957,4.598407 1.438958,1.689211 3.785084,1.689211 1.783055,0 3.065604,-0.875887 1.313831,-0.875887 1.939464,-2.377408 h 5.661984 q -0.813323,3.753801 -3.597393,6.006082 -2.752788,2.221 -6.975814,2.221 -3.222013,0 -5.661984,-1.407676 -2.439971,-1.438957 -3.785083,-4.004055 -1.313831,-2.565098 -1.313831,-5.849674 0,-3.284576 1.313831,-5.849674 1.345112,-2.565098 3.785083,-3.972773 2.439971,-1.438957 5.661984,-1.438957 z"
         style="line-height:0.89999998;fill:#3b93bf;fill-opacity:1"
         id="path860"
         inkscape:connector-curvature="0" />
      <path
         d="m 70.651197,49.574143 q 3.003041,0 4.754815,2.002028 1.783055,2.002027 1.783055,5.505575 V 67.21701 H 71.8399 v -9.50963 q 0,-1.751774 -0.93845,-2.721506 -0.907169,-1.001014 -2.439971,-1.001014 -1.626647,0 -2.596379,1.032296 -0.938451,1.032295 -0.938451,2.940477 V 67.21701 H 59.577482 V 44.068568 h 5.349167 v 8.883997 q 0.750761,-1.564084 2.220999,-2.471253 1.501521,-0.907169 3.503549,-0.907169 z"
         style="line-height:0.89999998;fill:#3b93bf;fill-opacity:1"
         id="path862"
         inkscape:connector-curvature="0" />
      <path
         d="m 89.056196,49.542862 q 2.596379,0 4.629688,1.094859 2.064591,1.063577 3.222013,3.096886 1.188704,2.033309 1.188704,4.754815 0,2.721506 -1.188704,4.754815 -1.157422,2.033309 -3.222013,3.128168 -2.033309,1.063577 -4.629688,1.063577 -2.596379,0 -4.66097,-1.063577 -2.064591,-1.094859 -3.253295,-3.128168 -1.157422,-2.033309 -1.157422,-4.754815 0,-2.721506 1.157422,-4.754815 1.188704,-2.033309 3.253295,-3.096886 2.064591,-1.094859 4.66097,-1.094859 z m 0,4.629688 q -1.532802,0 -2.596379,1.126141 -1.032296,1.094859 -1.032296,3.190731 0,2.095873 1.032296,3.190731 1.063577,1.094859 2.596379,1.094859 1.532802,0 2.565098,-1.094859 1.032295,-1.094858 1.032295,-3.190731 0,-2.095872 -1.032295,-3.190731 -1.032296,-1.126141 -2.565098,-1.126141 z"
         style="line-height:0.89999998;fill:#8bc9e5;fill-opacity:1"
         id="path864"
         inkscape:connector-curvature="0" />
      <path
         d="m 106.3942,53.04641 q 1.00101,-1.595366 2.5651,-2.533816 1.59536,-0.938451 3.44098,-0.938451 v 5.724548 h -1.5328 q -2.12715,0 -3.31586,0.907168 -1.15742,0.907169 -1.15742,3.065605 v 7.945546 h -5.34917 V 49.761834 h 5.34917 z"
         style="line-height:0.89999998;fill:#8bc9e5;fill-opacity:1"
         id="path866"
         inkscape:connector-curvature="0" />
      <path
         d="m 121.47601,49.542862 q 2.00203,0 3.44099,0.907168 1.43895,0.907169 2.09587,2.471253 v -8.852715 h 5.34917 V 67.21701 h -5.34917 v -3.159449 q -0.65692,1.564084 -2.09587,2.471253 -1.43896,0.907168 -3.44099,0.907168 -2.15843,0 -3.87893,-1.063577 -1.68921,-1.094859 -2.69022,-3.128168 -0.96973,-2.033309 -0.96973,-4.754815 0,-2.752788 0.96973,-4.754815 1.00101,-2.033309 2.69022,-3.096886 1.7205,-1.094859 3.87893,-1.094859 z m 1.72049,4.692252 q -1.72049,0 -2.78407,1.12614 -1.03229,1.126141 -1.03229,3.128168 0,2.002027 1.03229,3.128168 1.06358,1.12614 2.78407,1.12614 1.68921,0 2.75279,-1.157422 1.09486,-1.157422 1.09486,-3.096886 0,-1.970746 -1.09486,-3.096886 -1.06358,-1.157422 -2.75279,-1.157422 z"
         style="line-height:0.89999998;fill:#8bc9e5;fill-opacity:1"
         id="path868"
         inkscape:connector-curvature="0" />
      <path
         d="m 45.801191,74.203157 q 4.223026,0 6.975814,2.220999 2.78407,2.221 3.597393,6.006083 h -5.661984 q -0.625633,-1.532803 -1.939464,-2.40869 -1.282549,-0.875887 -3.065604,-0.875887 -2.346126,0 -3.785084,1.720493 -1.438957,1.720492 -1.438957,4.598407 0,2.877914 1.438957,4.598406 1.438958,1.689211 3.785084,1.689211 1.783055,0 3.065604,-0.875887 1.313831,-0.875887 1.939464,-2.377408 h 5.661984 q -0.813323,3.753802 -3.597393,6.006083 -2.752788,2.220999 -6.975814,2.220999 -3.222013,0 -5.661984,-1.407676 -2.439971,-1.438957 -3.785083,-4.004054 -1.313831,-2.565098 -1.313831,-5.849674 0,-3.284577 1.313831,-5.849674 1.345112,-2.565098 3.785083,-3.972774 2.439971,-1.438957 5.661984,-1.438957 z"
         style="line-height:0.89999998;fill:#8bc9e5;fill-opacity:1"
         id="path870"
         inkscape:connector-curvature="0" />
      <path
         d="m 70.651197,78.895409 q 3.003041,0 4.754815,2.002027 1.783055,2.002028 1.783055,5.505576 V 96.538276 H 71.8399 v -9.50963 q 0,-1.751775 -0.93845,-2.721507 -0.907169,-1.001013 -2.439971,-1.001013 -1.626647,0 -2.596379,1.032295 -0.938451,1.032296 -0.938451,2.940478 v 9.259377 H 59.577482 V 73.389833 h 5.349167 v 8.883997 q 0.750761,-1.564084 2.220999,-2.471252 1.501521,-0.907169 3.503549,-0.907169 z"
         style="line-height:0.89999998;fill:#8bc9e5;fill-opacity:1"
         id="path872"
         inkscape:connector-curvature="0" />
      <path
         d="m 87.523394,78.864127 q 2.002027,0 3.440984,0.907169 1.438958,0.907169 2.127155,2.471253 v -3.15945 h 5.317885 v 17.455177 h -5.317885 v -3.15945 q -0.688197,1.564084 -2.127155,2.471253 -1.438957,0.907169 -3.440984,0.907169 -2.158436,0 -3.878929,-1.063577 -1.68921,-1.094859 -2.690224,-3.128168 -0.969732,-2.033309 -0.969732,-4.754816 0,-2.752787 0.969732,-4.754815 1.001014,-2.033309 2.690224,-3.096886 1.720493,-1.094859 3.878929,-1.094859 z m 1.720492,4.692252 q -1.720492,0 -2.784069,1.126141 -1.032296,1.12614 -1.032296,3.128167 0,2.002028 1.032296,3.128168 1.063577,1.126141 2.784069,1.126141 1.689211,0 2.752788,-1.157422 1.094859,-1.157422 1.094859,-3.096887 0,-1.970745 -1.094859,-3.096886 -1.063577,-1.157422 -2.752788,-1.157422 z"
         style="line-height:0.89999998;fill:#3b93bf;fill-opacity:1"
         id="path874"
         inkscape:connector-curvature="0" />
      <path
         d="m 107.61614,82.367675 q 1.00101,-1.595365 2.5651,-2.533816 1.59536,-0.93845 3.44098,-0.93845 v 5.724547 h -1.5328 q -2.12716,0 -3.31586,0.907169 -1.15742,0.907169 -1.15742,3.065604 v 7.945547 h -5.34917 V 79.083099 h 5.34917 z"
         style="line-height:0.89999998;fill:#3b93bf;fill-opacity:1"
         id="path876"
         inkscape:connector-curvature="0" />
      <path
         d="m 125.95125,91.939869 v 4.598407 h -2.40869 q -3.06561,0 -4.7861,-1.501521 -1.68921,-1.532802 -1.68921,-5.03635 v -6.412744 h -2.34613 v -4.504562 h 2.34613 v -4.28559 h 5.34917 v 4.28559 h 3.50354 v 4.504562 h -3.50354 v 6.506589 q 0,1.032295 0.40666,1.438957 0.43794,0.406662 1.43895,0.406662 z"
         style="line-height:0.89999998;fill:#3b93bf;fill-opacity:1"
         id="path878"
         inkscape:connector-curvature="0" />
    </g>
  </g>
</svg>
